<svg width="392" height="371" viewBox="0 0 392 371" fill="none" xmlns="http://www.w3.org/2000/svg">
<path fill-rule="evenodd" clip-rule="evenodd" d="M173.186 5.9357C178.479 16.4287 176.665 29.1347 168.064 41.8187C166.208 44.5557 155.972 55.3087 145.318 65.7137C123.662 86.8637 118.424 93.1907 112.96 104.795C103.811 124.227 103.887 144.008 113.183 163.223C116.503 170.086 118.956 173.353 126.396 180.824C136.994 191.467 145.351 196.753 159.031 201.466C168.146 204.607 169.158 204.741 184.031 204.767C197.544 204.791 200.487 204.495 206.988 202.453C232.774 194.356 250.828 177.324 259.097 153.295C261.976 144.927 262.186 130.465 259.604 118.306C256.539 103.869 258.452 91.2677 264.808 84.0387C265.657 83.0727 266.167 82.1227 265.942 81.9267C264.912 81.0347 250.894 84.6977 245.138 87.3637C230.015 94.3657 218.127 105.833 202.882 128.123C192.107 143.877 179.727 157.304 170.332 163.425C164.155 167.449 163.716 167.585 162.452 165.857C161.717 164.85 160.563 161.562 159.889 158.55C157.389 147.381 162.802 131.513 173.005 120.097C175.806 116.963 182.703 110.612 188.332 105.982C206.707 90.8687 214.29 80.7847 217.491 67.2017C220.459 54.6097 218.925 43.5937 212.499 31.3657C207.775 22.3757 201.388 15.3467 192.605 9.47269C186.191 5.18269 174.947 0.294678 171.491 0.294678C170.823 0.294678 171.535 2.6627 173.186 5.9357ZM297.347 142.545C294.151 150.689 285.461 166.932 279.538 175.832C271.834 187.409 256.008 203.268 244.692 210.752C204.733 237.18 154.477 235.786 115.876 207.179C105.986 199.849 92.0272 184.693 84.0682 172.642C76.0622 160.52 75.5003 161.005 79.4623 176.623C87.1893 207.084 108.369 232.81 138.031 247.766C147.242 252.41 162.544 257.647 170.531 258.889L175.531 259.667L167.808 260.99C156.383 262.948 144.502 267.629 134.451 274.134C126.057 279.565 112.934 290.695 114.031 291.451C114.306 291.64 147.156 291.57 187.031 291.295L259.531 290.795L251.117 283.619C238.479 272.839 224.154 265.054 211.578 262.13C208.527 261.421 206.031 260.555 206.031 260.205C206.031 259.856 208.403 259.292 211.303 258.951C218.581 258.095 229.246 254.316 239.71 248.883C275.728 230.184 297.966 194.317 299.748 152.045C300.067 144.483 300.032 138.295 299.671 138.295C299.31 138.295 298.264 140.208 297.347 142.545ZM360.302 318.259C354.964 320.682 352.038 325.297 352.038 331.295C352.038 339.884 356.087 343.605 370.531 348.29C379.073 351.061 380.031 351.775 380.031 355.361C380.031 361.326 369.359 363.714 364.486 358.84C363.136 357.49 362.031 355.915 362.031 355.34C362.031 354.729 359.538 354.295 356.031 354.295C352.731 354.295 350.031 354.716 350.031 355.23C350.031 359.611 355.59 366.711 360.749 368.918C366.002 371.166 377.809 370.703 383.011 368.045C389.432 364.764 391.531 361.378 391.531 354.302C391.531 349.446 391.108 348.004 389.031 345.784C385.719 342.244 384.127 341.423 373.615 337.837C364.101 334.591 362.362 333.098 363.378 329.05C364.726 323.678 374.479 323.276 378.292 328.435C380.159 330.959 381.033 331.295 385.732 331.295H391.058L389.497 327.559C387.493 322.762 384.364 319.392 380.313 317.666C375.599 315.657 365.365 315.96 360.302 318.259ZM0.03125 343.795V370.295H5.50726H10.9833L11.2573 353.592L11.5312 336.889L22.0312 353.573L32.5312 370.256L38.2812 370.276L44.0312 370.295V343.745V317.195L38.4323 317.495L32.8333 317.795L32.9752 334.045C33.0532 342.983 32.9623 350.295 32.7733 350.295C32.5833 350.295 27.7362 342.87 22.0012 333.795L11.5743 317.295H5.80225H0.03125V343.795ZM55.0312 343.795V370.295H72.5312H90.0312V365.295V360.295H78.0312H66.0312V354.295V348.295H76.5312H87.0312V343.795V339.295H76.5312H66.0312V333.295V327.295H77.5312H89.0312V322.295V317.295H72.0312H55.0312V343.795ZM105.151 329.738C109.607 336.632 113.026 342.865 112.748 343.589C112.471 344.313 108.809 350.505 104.612 357.35L96.9813 369.795L102.137 370.102C104.972 370.271 107.873 370.186 108.583 369.913C109.293 369.641 112.25 365.343 115.156 360.362L120.438 351.305L125.968 360.8L131.497 370.295H137.799C145.199 370.295 145.506 371.865 134.796 354.955C130.908 348.817 127.722 343.345 127.717 342.795C127.711 342.245 131.154 336.489 135.369 330.003C139.583 323.517 143.031 318.005 143.031 317.753C143.031 317.501 140.142 317.295 136.612 317.295H130.192L125.323 325.775L120.455 334.255L115.408 326.025L110.361 317.795L103.705 317.5L97.0493 317.204L105.151 329.738ZM149.031 322.295V327.295H157.031H165.031V348.795V370.295H170.531H176.031V348.795V327.295H183.531H191.031V322.295V317.295H170.031H149.031V322.295ZM200.031 343.795V370.295H205.531H211.031V359.295V348.295H221.531H232.031V359.295V370.295H237.531H243.031V343.795V317.295H237.531H232.031V327.795V338.295H221.531H211.031V327.795V317.295H205.531H200.031V343.795ZM255.031 343.843V370.391L272.738 370.093L290.446 369.795L290.563 365.045L290.681 360.295H278.356H266.031V354.295V348.295H277.031H288.031V343.295V338.295H276.981H265.931L266.231 332.654L266.531 327.013L278.031 326.904L289.531 326.795L289.836 322.045L290.141 317.295H272.586H255.031V343.843ZM299.713 337.045C300.344 358.484 301.144 361.879 306.566 366.144C313.087 371.274 326.78 371.712 333.874 367.018C340.699 362.501 341.488 359.531 341.839 337.045L342.148 317.295H336.589H331.031V334.646C331.031 352.625 330.218 357.589 326.992 359.316C323.845 361 316.477 360.477 313.892 358.385C311.577 356.513 311.525 356.092 311.222 336.885L310.912 317.295H305.021H299.131L299.713 337.045Z" fill="url(#paint0_linear_135_381)"/>
<defs>
<linearGradient id="paint0_linear_135_381" x1="314.5" y1="86" x2="-2.66914e-05" y2="370" gradientUnits="userSpaceOnUse">
<stop stop-color="#EA580C"/>
<stop offset="1" stop-color="#843207"/>
</linearGradient>
</defs>
</svg>
