<svg width="223" height="292" viewBox="0 0 223 292" fill="none" xmlns="http://www.w3.org/2000/svg">
<path fill-rule="evenodd" clip-rule="evenodd" d="M96.1863 5.9357C101.479 16.4287 99.6653 29.1347 91.0643 41.8187C89.2083 44.5557 78.9722 55.3087 68.3182 65.7137C46.6622 86.8637 41.4243 93.1907 35.9603 104.795C26.8113 124.227 26.8872 144.008 36.1832 163.223C39.5032 170.086 41.9562 173.353 49.3962 180.824C59.9942 191.467 68.3512 196.753 82.0312 201.466C91.1462 204.607 92.1582 204.741 107.031 204.767C120.544 204.791 123.487 204.495 129.988 202.453C155.774 194.356 173.828 177.324 182.097 153.295C184.976 144.927 185.186 130.465 182.604 118.306C179.539 103.869 181.452 91.2677 187.808 84.0387C188.657 83.0727 189.167 82.1227 188.942 81.9267C187.912 81.0347 173.894 84.6977 168.138 87.3637C153.015 94.3657 141.127 105.833 125.882 128.123C115.107 143.877 102.727 157.304 93.3323 163.425C87.1553 167.449 86.7163 167.585 85.4523 165.857C84.7173 164.85 83.5632 161.562 82.8892 158.55C80.3892 147.381 85.8022 131.513 96.0052 120.097C98.8062 116.963 105.703 110.612 111.332 105.982C129.707 90.8687 137.29 80.7847 140.491 67.2017C143.459 54.6097 141.925 43.5937 135.499 31.3657C130.775 22.3757 124.388 15.3467 115.605 9.47269C109.191 5.18269 97.9473 0.294678 94.4913 0.294678C93.8233 0.294678 94.5353 2.6627 96.1863 5.9357ZM220.347 142.545C217.151 150.689 208.461 166.932 202.538 175.832C194.834 187.409 179.008 203.268 167.692 210.752C127.733 237.18 77.4772 235.786 38.8762 207.179C28.9862 199.849 15.0272 184.693 7.06822 172.642C-0.937777 160.52 -1.49973 161.005 2.46227 176.623C10.1893 207.084 31.3692 232.81 61.0312 247.766C70.2422 252.41 85.5442 257.647 93.5312 258.889L98.5312 259.667L90.8082 260.99C79.3832 262.948 67.5022 267.629 57.4512 274.134C49.0572 279.565 35.9342 290.695 37.0312 291.451C37.3062 291.64 70.1562 291.57 110.031 291.295L182.531 290.795L174.117 283.619C161.479 272.839 147.154 265.054 134.578 262.13C131.527 261.421 129.031 260.555 129.031 260.205C129.031 259.856 131.403 259.292 134.303 258.951C141.581 258.095 152.246 254.316 162.71 248.883C198.728 230.184 220.966 194.317 222.748 152.045C223.067 144.483 223.032 138.295 222.671 138.295C222.31 138.295 221.264 140.208 220.347 142.545Z" fill="url(#paint0_linear_135_381)"/>
<defs>
<linearGradient id="paint0_linear_135_381" x1="237.5" y1="86" x2="-77" y2="370" gradientUnits="userSpaceOnUse">
<stop stop-color="#EA580C"/>
<stop offset="1" stop-color="#843207"/>
</linearGradient>
</defs>
</svg>
